<?xml version="1.0" encoding="utf-8"?>
<!-- Generator: Adobe Illustrator 20.1.0, SVG Export Plug-In . SVG Version: 6.00 Build 0)  -->
<svg version="1.1" id="Слой_1" xmlns="http://www.w3.org/2000/svg" xmlns:xlink="http://www.w3.org/1999/xlink" x="0px" y="0px"
	 viewBox="0 0 134 136" style="enable-background:new 0 0 134 136;" xml:space="preserve">
<style type="text/css">
	.st0{fill:#35b5e5;}
	.st1{fill:none;stroke:#ffffff;stroke-miterlimit:10;}
	.st2{fill:none;stroke:#ffffff;stroke-width:2;stroke-miterlimit:10;}
</style>
<path class="st0" d="M62.9,11.6C63,14.1,63,17,63,17h10.6c0,0,0.5,3.5,2.2,9.3s3.5,9,3.5,9s2.6-0.4,4.4,1.6s-1.3,4.6-1.3,4.6
	l2.3,1.4L85,136H12.5l0.1-93.5l2.8-0.1c0,0-0.8-0.8-1.6-2.4s-0.6-2.3,0.3-4s3.3-1.2,3.3-1.2l6.1-17.4L33.6,17l0.6-8.5
	c0,0-1.4,0.3-3.1,0.3S29.6,8,29.3,7s1.1-1.6,3.1-1.6S34,7.6,34,7.6s1-1.1,3.9-2.8S45.1,2,51.5,2.3S63,6.5,63,6.5s1.3-1,3.6-0.9
	s1.3,2.4,0.5,3s-3.9-0.8-3.9-0.8S62.8,9.1,62.9,11.6z M114.1,114.3c0,0,0.8-9.4-7.6-9.4s-10.4,4.9-10.4,4.9s-0.4,3-0.1,4.1
	s0.5,1.8,1.6,1.5s2.3-0.1,2.3-0.1l2-0.1l1.6,0.2l1.6-0.5l1.4,0.5l1.3-0.5l1.7,0.5l1.5-0.4l1.6,0.3L114.1,114.3 M104.3,134.4h1.3
	v-22.9h-1.3V134.4z M101.9,135.5h6.6v-1.3h-6.6V135.5z M94.2,135.5h5.3v-1.9h-5.3V135.5z M96.3,133.6h1.2V125h-1.2V133.6z
	 M88.4,124.5h16.5v-1.3H88.4V124.5z M120.9,123.6l-1.2-0.8c0,0-0.6,0.5-1.3,2.6s-0.7,3.8-0.7,3.8l-6.4-0.3l-0.1,7l1-4.9l5,0.1
	c0,0,0.3,1.2,0.7,2.5s1.4,2.1,1.4,2.1s-0.5-3-0.5-5s0.4-3.6,0.6-4.8S120.9,123.6,120.9,123.6z"/>
<path class="st1" d="M48.1,4.4c7.4-0.2,11.7,4.9,11.7,4.9H37.7C37.7,9.3,40.7,4.6,48.1,4.4z M55.9,21.6H41.5v16.7H56
	C55.9,38.3,55.9,21.6,55.9,21.6z M53.8,23.9H43.4v12.3h10.4L53.8,23.9L53.8,23.9z M48.6,24.1v12.4 M53.8,28.6H43.6 M41.5,44.9H22.7
	v22.5h18.8C41.5,67.5,41.5,44.9,41.5,44.9z M39.7,47.4H24.8v17.9h14.9L39.7,47.4L39.7,47.4z M24.8,52h14.9 M24.7,59.9h14.7
	 M29.4,65.4v-18 M35.1,65.3V47.5 M75,44.9H56.2v22.5H75V44.9z M73.2,47.4H58.3v17.9h14.9V47.4z M58.3,52h14.9 M58.2,59.9h14.7
	 M62.9,47.4v17.9 M68.6,47.5v17.8 M41.6,74.2H22.8v22.5h18.8V74.2z M39.8,76.6H24.9v17.9h14.9V76.6z M39.8,81.3H24.9 M24.8,89.1
	h14.7 M29.5,94.7v-18 M35.2,94.6V76.8 M75.1,74.2H56.3v22.5h18.8V74.2z M73.3,76.6H58.4v17.9h14.9V76.6z M58.4,81.3h14.9 M58.3,89.1
	H73 M62.9,76.7v17.9 M68.7,76.8v17.8 M41.8,105.9H23v22.5h18.8V105.9z M40,108.4H25.1v17.9H40V108.4z M40,113H25.1 M39.7,120.9H25
	 M29.6,126.4v-17.9 M35.4,126.3v-17.8 M82.6,99.5h-5.2v3c0,1.1,1.2,1.9,2.6,1.9l0,0c1.4,0,2.6-0.9,2.6-1.9V99.5L82.6,99.5z
	 M75.5,105.9H56.3v29.5h19.1L75.5,105.9L75.5,105.9z M73.6,116.7H58.4v18.6h15.2V116.7z M73.6,108.3H58.4v7.1h15.2V108.3z
	 M66.4,116.7h-8v18.6h8V116.7z M14.3,99.5h68.6 M77.4,99.6h-5.2v3c0,1.1,1.2,1.9,2.6,1.9l0,0c1.4,0,2.6-0.9,2.6-1.9V99.6L77.4,99.6z
	 M72.1,99.5H67v3c0,1.1,1.2,1.9,2.6,1.9l0,0c1.4,0,2.6-0.9,2.6-1.9L72.1,99.5L72.1,99.5z M66.9,99.6h-5.2v3c0,1.1,1.2,1.9,2.6,1.9
	l0,0c1.4,0,2.6-0.9,2.6-1.9V99.6L66.9,99.6z M61.7,99.6h-5.2v3c0,1.1,1.2,1.9,2.6,1.9l0,0c1.4,0,2.6-0.9,2.6-1.9L61.7,99.6
	L61.7,99.6z M56.5,99.5h-5.2v3c0,1.1,1.2,1.9,2.6,1.9l0,0c1.4,0,2.6-0.9,2.6-1.9L56.5,99.5L56.5,99.5z M51.2,99.6H46v3
	c0,1.1,1.2,1.9,2.6,1.9l0,0c1.4,0,2.6-0.9,2.6-1.9L51.2,99.6L51.2,99.6z M45.9,99.6h-5.2v3c0,1.1,1.2,1.9,2.6,1.9l0,0
	c1.4,0,2.6-0.9,2.6-1.9L45.9,99.6L45.9,99.6z M40.7,99.6h-5.2v3c0,1.1,1.2,1.9,2.6,1.9l0,0c1.4,0,2.6-0.9,2.6-1.9L40.7,99.6
	L40.7,99.6z M35.4,99.6h-5.2v3c0,1.1,1.2,1.9,2.6,1.9l0,0c1.4,0,2.6-0.9,2.6-1.9L35.4,99.6L35.4,99.6z M30.3,99.6h-5.2v3
	c0,1.1,1.2,1.9,2.6,1.9l0,0c1.4,0,2.6-0.9,2.6-1.9V99.6L30.3,99.6z M25.1,99.6h-5.2v3c0,1.1,1.2,1.9,2.6,1.9l0,0
	c1.4,0,2.6-0.9,2.6-1.9L25.1,99.6L25.1,99.6z M19.8,99.6h-5.2v3c0,1.1,1.2,1.9,2.6,1.9l0,0c1.4,0,2.6-0.9,2.6-1.9V99.6L19.8,99.6z
	 M114.1,112.5c0-4.4-4-7.9-9-7.9s-9,3.5-9,7.9C96,112.5,114,112.6,114.1,112.5z M114.1,112.6h-3v1.7c0,0.6,0.7,1,1.5,1l0,0
	c0.8,0,1.5-0.5,1.5-1V112.6L114.1,112.6z M111,112.7h-3v1.7c0,0.6,0.7,1,1.5,1l0,0c0.8,0,1.5-0.5,1.5-1V112.7L111,112.7z M108,112.6
	h-3v1.7c0,0.6,0.7,1,1.5,1l0,0c0.8,0,1.5-0.5,1.5-1V112.6L108,112.6z M105,112.7h-3v1.7c0,0.6,0.7,1,1.5,1l0,0c0.8,0,1.5-0.5,1.5-1
	V112.7L105,112.7z M102.1,112.7h-3v1.7c0,0.6,0.7,1,1.5,1l0,0c0.8,0,1.5-0.5,1.5-1V112.7L102.1,112.7z M99.1,112.6h-3v1.7
	c0,0.6,0.7,1,1.5,1l0,0c0.8,0,1.5-0.5,1.5-1V112.6L99.1,112.6z M111.1,112.7c0,0-0.3-3.3-2-5.3c-1.6-1.9-4-2.7-4-2.7 M108.3,112.7
	c0,0-0.5-3.4-1.4-5.3c-0.8-1.6-1.6-2.7-1.6-2.7 M105.1,112.6v-7.9 M105.1,104.8c0,0-2.4,0.8-4,2.7c-1.7,2-2,5.3-2,5.3 M104.9,104.8
	c0,0-0.7,1.1-1.6,2.7c-1,1.9-1.4,5.3-1.4,5.3 M105.6,115.3h-1.2v19.1h1.2V115.3z M108.5,134.4h-7v1.1h7V134.4z M105.3,123.1H88.7
	v1.5h16.6C105.3,124.7,105.3,123.1,105.3,123.1z M97.5,124.9h-1.2v8.6h1.2V124.9z M99.5,133.6h-5.3v1.9h5.3V133.6z M119.3,135.7
	c0,0-0.8-6-0.2-8.8c0.6-2.8,1.3-3.4,1.3-3.4l-0.8-0.7c0,0-0.8,0.6-1.4,3.2s-0.6,3.2-0.6,3.2l-6.4-0.3l-0.1,7h0.7l0.3-4.9l5,0.1
	l1.4,4.7L119.3,135.7z M133.7,136H0.6 M31.7,8.8C33,8.8,34.1,8,34.1,7S33,5.2,31.7,5.2S29.3,6,29.3,7S30.4,8.8,31.7,8.8z M45.1,18.1
	h7.3v-5.6h-7.3V18.1z M68.2,7c0-1-1.1-1.8-2.4-1.8S63.3,6,63.3,7s1.1,1.8,2.4,1.8S68.2,8,68.2,7z"/>
<path class="st2" d="M17.3,34.8c0,0,0.8-1.9,3.1-7.6S23.1,17,23.1,17h10.6 M79.4,34.8c0,0-0.8-1.9-3.1-7.6
	C74.1,21.5,73.6,17,73.6,17H63 M84.9,42.5c0,0-22.7-0.5-22.2-33.9c0-0.5,0.4-1.2,0-1.5c-2.6-2.4-6.8-5-13.7-5.2
	C42.1,1.8,38.4,4.5,34.3,7c-0.4,0.2,0,0.9,0,1.4c-0.2,35.5-21.7,34-21.7,34v92.9H85L84.9,42.5L84.9,42.5z M16.5,41.7
	c1.8,0,3.3-1.6,3.3-3.5s-1.5-3.5-3.3-3.5s-3.3,1.6-3.3,3.5S14.7,41.7,16.5,41.7z M84.5,38.2c0-1.9-1.5-3.5-3.3-3.5s-3.3,1.6-3.3,3.5
	s1.5,3.5,3.3,3.5C83.1,41.7,84.5,40.2,84.5,38.2z"/>
</svg>
