<svg xmlns="http://www.w3.org/2000/svg" xmlns:xlink="http://www.w3.org/1999/xlink" version="1.1" id="Layer_1" x="0px" y="0px" viewBox="0 0 83 158" style="enable-background:new 0 0 83 158;" xml:space="preserve">
<style type="text/css">
	.st0{fill:#35b5e5;}
	.st1{fill:none;stroke:#ffffff;stroke-miterlimit:10;}
	.st2{fill:none;stroke:#ffffff;stroke-width:2;stroke-miterlimit:10;}</style>
<g id="Слой_4">
	<path class="st0" d="M47.4,26.5c0,0-3.2-10.6-8.8-6.5s-3.2,6.6-3.2,6.6l1.4,0.5l-0.5,8.4c0,0-2.9,4.1-7.3,6.2s-7.7,6.6-8,10.9   s-0.7,35.2-0.7,35.2l-13,0.6l-0.3,59.4l-4.5,0.9L2,156h78.7v-8.3h-4.9v-60H62.5l0,0c0,0,0.4-35.9-2.3-39.1s-10.9-8.8-12.5-10.5   c-1.5-1.7-1.8-8.7-1.8-8.7l0.4-2.3L47.4,26.5"/>
</g>
<g id="Слой_1">
	<path class="st1" d="M34.2,88.3V57.8 M48,87.8V58 M56.7,69c0-0.6-0.4-1-1-1l0,0c-0.6,0-1,0.4-1,1v13c0,0.6,0.4,1,1,1l0,0   c0.6,0,1-0.4,1-1V69z M42.7,69c0-0.6-0.4-1-1-1l0,0c-0.6,0-1,0.4-1,1v13c0,0.6,0.4,1,1,1l0,0c0.6,0,1-0.4,1-1V69z M28.7,68.8   c0-0.6-0.4-1-1-1l0,0c-0.6,0-1,0.4-1,1v13c0,0.6,0.4,1,1,1l0,0c0.6,0,1-0.4,1-1V68.8z M75.9,87.8h-69v60h69V87.8z M48.6,97.5   c0-0.6-0.4-1-1-1l0,0c-0.6,0-1,0.4-1,1v13c0,0.6,0.4,1,1,1l0,0c0.6,0,1-0.4,1-1V97.5z M36.3,97.5c0-0.6-0.4-1-1-1l0,0   c-0.6,0-1,0.4-1,1v13c0,0.6,0.4,1,1,1l0,0c0.6,0,1-0.4,1-1V97.5z M15.9,97.5c0-0.6-0.4-1-1-1l0,0c-0.6,0-1,0.4-1,1v13   c0,0.6,0.4,1,1,1l0,0c0.6,0,1-0.4,1-1V97.5z M68.4,97.3c0-0.6-0.4-1-1-1l0,0c-0.6,0-1,0.4-1,1v13c0,0.6,0.4,1,1,1l0,0   c0.6,0,1-0.4,1-1V97.3z M56.8,147.8h3v-60h-3V147.8z M23.8,147.3h3V87.9h-3V147.3z M75.8,132h-69v15.6h69L75.8,132L75.8,132z    M48.6,124c0-0.3-0.4-0.5-1-0.5l0,0c-0.6,0-1,0.2-1,0.5v7c0,0.3,0.4,0.5,1,0.5l0,0c0.6,0,1-0.2,1-0.5V124z M36.3,124   c0-0.3-0.4-0.5-1-0.5l0,0c-0.6,0-1,0.2-1,0.5v7c0,0.3,0.4,0.5,1,0.5l0,0c0.6,0,1-0.2,1-0.5V124z M15.9,124c0-0.3-0.4-0.5-1-0.5l0,0   c-0.6,0-1,0.2-1,0.5v7c0,0.3,0.4,0.5,1,0.5l0,0c0.6,0,1-0.2,1-0.5V124z M68.4,123.8c0-0.3-0.4-0.5-1-0.5l0,0c-0.6,0-1,0.2-1,0.5v7   c0,0.3,0.4,0.5,1,0.5l0,0c0.6,0,1-0.2,1-0.5V123.8z"/>
</g>
<g id="Слой_3">
	<path class="st2" d="M75.9,147.8h-69v-60h69V147.8z M62.5,58.3H20.2v29.5h42.3V58.3z M36.2,35.5h10v-9h-10V35.5z M36,34.3   c0,0,0.4,2.5-4.4,5.4s-7.8,4.8-9.3,7.8s-2.1,10.9-2.1,10.9 M62.1,58.7c0,0-0.6-7.9-2.1-10.9s-4.5-4.9-9.3-7.8s-4.4-5.4-4.4-5.4    M47.4,26.5c0-3.8-2.9-6.8-6.4-6.8s-6.4,3-6.4,6.8H47.4z M80.7,147.8H2v8.3h78.7L80.7,147.8L80.7,147.8z M41,1.7v18 M35.6,6.7h10.6    M37.7,13.6l6.9,3.4"/>
</g>
</svg>