<svg xmlns="http://www.w3.org/2000/svg" xmlns:xlink="http://www.w3.org/1999/xlink" version="1.1" id="Layer_1" x="0px" y="0px" viewBox="0 0 380 163" style="enable-background:new 0 0 380 163;" xml:space="preserve">
<style type="text/css">
	.st0{fill:#35b5e5;}
	.st1{fill:none;stroke:#ffffff;stroke-miterlimit:10;}
	.st2{fill:none;stroke:#ffffff;stroke-width:2;stroke-miterlimit:10;}
</style>
<polyline class="st0" points="112,61 111.8,49.3 114.8,39.5 114.8,32 114.8,32 119,19.8 123,31.3 122.8,39 125.8,48 126,55 126,55   157,49.8 183.5,3.5 195,4 221.3,48.8 252.8,56.5 253,48.8 255.3,39 255.5,32 260,19.3 264.5,31 264.3,38.8 266.8,49 267.3,61   369.5,91 377,91.3 377,159.5 1.8,159.4 1.9,91 9.5,90.9 112,61 "/>
<path class="st1" d="M167.3,159.3H1.6v-32.6h165.7v32V159.3L167.3,159.3z M211.7,126.8v32l0,0v0.6h165.9v-32.6  C377.6,126.8,211.7,126.8,211.7,126.8z M170,70.5v16.6h-7.1V70.5c0-0.2,0-0.3,0-0.4c0.1-0.5,0.2-0.9,0.4-1.3  c0.1-0.2,0.2-0.3,0.3-0.4c0.6-0.8,1.6-1.3,2.8-1.3s2.1,0.5,2.8,1.3c0.1,0.1,0.2,0.3,0.3,0.4c0.2,0.4,0.4,0.8,0.4,1.3  C170,70.2,170,70.3,170,70.5z M157.1,159.5h65V49h-65V159.5z M181.8,70.5v16.6h-7.1V70.5c0-0.2,0-0.3,0-0.4c0.1-0.5,0.2-0.9,0.4-1.3  c0.1-0.2,0.2-0.3,0.3-0.4c0.6-0.8,1.6-1.3,2.8-1.3s2.1,0.5,2.8,1.3c0.1,0.1,0.2,0.3,0.3,0.4c0.2,0.4,0.4,0.8,0.4,1.3  C181.8,70.2,181.8,70.3,181.8,70.5z M193.6,70.5v16.6h-7.1V70.5c0-0.2,0-0.3,0-0.4c0.1-0.5,0.2-0.9,0.4-1.3c0.1-0.2,0.2-0.3,0.3-0.4  c0.6-0.8,1.6-1.3,2.8-1.3s2.1,0.5,2.8,1.3c0.1,0.1,0.2,0.3,0.3,0.4c0.2,0.4,0.4,0.8,0.4,1.3C193.6,70.2,193.6,70.3,193.6,70.5z   M205.4,70.5v16.6h-7.1V70.5c0-0.2,0-0.3,0-0.4c0.1-0.5,0.2-0.9,0.4-1.3c0.1-0.2,0.2-0.3,0.3-0.4c0.6-0.8,1.6-1.3,2.8-1.3  s2.1,0.5,2.8,1.3c0.1,0.1,0.2,0.3,0.3,0.4c0.2,0.4,0.4,0.8,0.4,1.3C205.4,70.2,205.4,70.3,205.4,70.5z M217.2,70.5v16.6h-7.1V70.5  c0-0.2,0-0.3,0-0.4c0.1-0.5,0.2-0.9,0.4-1.3c0.1-0.2,0.2-0.3,0.3-0.4c0.6-0.8,1.6-1.3,2.8-1.3s2.1,0.5,2.8,1.3  c0.1,0.1,0.2,0.3,0.3,0.4c0.2,0.4,0.4,0.8,0.4,1.3C217.2,70.2,217.2,70.3,217.2,70.5z M135.6,70.5v16.6h-7.1V70.5c0-0.2,0-0.3,0-0.4  c0.1-0.5,0.2-0.9,0.4-1.3c0.1-0.2,0.2-0.3,0.3-0.4c0.6-0.8,1.6-1.3,2.8-1.3s2.1,0.5,2.8,1.3c0.1,0.1,0.2,0.3,0.3,0.4  c0.2,0.4,0.4,0.8,0.4,1.3C135.6,70.2,135.6,70.3,135.6,70.5z M145,70.5v16.6h-7.1V70.5c0-0.2,0-0.3,0-0.4c0.1-0.5,0.2-0.9,0.4-1.3  c0.1-0.2,0.2-0.3,0.3-0.4c0.6-0.8,1.6-1.3,2.8-1.3s2.1,0.5,2.8,1.3c0.1,0.1,0.2,0.3,0.3,0.4c0.2,0.4,0.4,0.8,0.4,1.3  C144.9,70.2,145,70.3,145,70.5z M154.3,70.5v16.6h-7.1V70.5c0-0.2,0-0.3,0-0.4c0.1-0.5,0.2-0.9,0.4-1.3c0.1-0.2,0.2-0.3,0.3-0.4  c0.6-0.8,1.6-1.3,2.8-1.3s2.1,0.5,2.8,1.3c0.1,0.1,0.2,0.3,0.3,0.4c0.2,0.4,0.4,0.8,0.4,1.3C154.3,70.2,154.3,70.3,154.3,70.5z   M232,70.5v16.6h-7.1V70.5c0-0.2,0-0.3,0-0.4c0.1-0.5,0.2-0.9,0.4-1.3c0.1-0.2,0.2-0.3,0.3-0.4c0.6-0.8,1.6-1.3,2.8-1.3  s2.1,0.5,2.8,1.3c0.1,0.1,0.2,0.3,0.3,0.4c0.2,0.4,0.4,0.8,0.4,1.3C232,70.2,232,70.3,232,70.5z M241.3,70.5v16.6h-7.1V70.5  c0-0.2,0-0.3,0-0.4c0.1-0.5,0.2-0.9,0.4-1.3c0.1-0.2,0.2-0.3,0.3-0.4c0.6-0.8,1.6-1.3,2.8-1.3s2.1,0.5,2.8,1.3  c0.1,0.1,0.2,0.3,0.3,0.4c0.2,0.4,0.4,0.8,0.4,1.3C241.3,70.2,241.3,70.3,241.3,70.5z M250.6,70.5v16.6h-7.1V70.5c0-0.2,0-0.3,0-0.4  c0.1-0.5,0.2-0.9,0.4-1.3c0.1-0.2,0.2-0.3,0.3-0.4c0.6-0.8,1.6-1.3,2.8-1.3s2.1,0.5,2.8,1.3c0.1,0.1,0.2,0.3,0.3,0.4  c0.2,0.4,0.4,0.8,0.4,1.3C250.6,70.2,250.6,70.3,250.6,70.5z M233.3,117.7h8.4v-15.4h-8.4V117.7z M241.9,117.7h8.4v-15.4h-8.4V117.7  z M225.1,117.7h8.4v-15.4h-8.4V117.7z M222.3,126.8h30.5v-6h-30.5V126.8z M137.3,117.9h8.4v-15.4h-8.4V117.9z M145.9,117.9h8.4  v-15.4h-8.4V117.9z M129.1,117.9h8.4v-15.4h-8.4V117.9z M126.3,127h30.5v-6h-30.5V127z M225.6,150.5H251v-15.4h-25.4V150.5z   M222.8,159.4h30.5v-5.8h-30.5V159.4z M129.6,150.3h25.2v-15.4h-25.2V150.3z M126.8,159.3h30.5v-6h-30.5V159.3z M115.8,159.4h6.3  v-28.2h-6.3V159.4z M115.6,118.1h6.8v-15.5h-6.8V118.1z M115.9,86.9h5.8V68.6h-5.8V86.9z M257.3,159.3h6.3v-28.8h-6.3V159.3z   M257.1,117.4h6.8v-15.5h-6.8V117.4z M257.4,86.1h5.8V67.9h-5.8V86.1z M111.9,94H15.5v65.4h96.4V94z M85,118h8.4v-15.4H85V118z   M93.6,118h8.4v-15.4h-8.4V118z M76.7,118h8.4v-15.4h-8.4V118z M73.9,127h30.5v-6H73.9V127z M77.2,150.3h25.2v-15.4H77.2V150.3z   M74.4,159.4h30.5v-6H74.4V159.4z M33.3,118h8.4v-15.4h-8.4C33.3,102.6,33.3,118,33.3,118z M41.9,118h8.4v-15.4h-8.4V118z M25.1,118  h8.4v-15.4h-8.4V118z M22.3,127h30.5v-6H22.3V127z M25.6,150.3h25.2v-15.4H25.6V150.3z M22.8,159.4h30.5v-6H22.8V159.4z M60.6,159.4  h6.3v-28.5h-6.3C60.6,130.9,60.6,159.4,60.6,159.4z M60.3,117.8h6.8v-15.5h-6.8V117.8z M56.5,94v65.4h14V94H56.5z M312.3,159.5h6.3  V131h-6.3V159.5z M312.1,117.8h6.8v-15.5h-6.8V117.8z M308.2,94v65.4h14V94H308.2z M336.6,118h8.4v-15.4h-8.4V118z M345.2,118h8.4  v-15.4h-8.4V118z M328.4,118h8.4v-15.4h-8.4V118z M325.5,127H356v-6h-30.5V127z M328.9,150.3h25.2v-15.4h-25.2V150.3z M326,159.4  h30.5v-6H326V159.4z M284.9,118h8.4v-15.4h-8.4V118z M293.5,118h8.4v-15.4h-8.4V118z M276.7,118h8.4v-15.4h-8.4V118z M273.9,127  h30.5v-6h-30.5V127z M277.2,150.3h25.2v-15.4h-25.2V150.3z M274.4,159.4h30.5v-6h-30.5V159.4z M5.9,159.4h6.3v-28.5H5.9V159.4z   M5.6,117.8h6.8v-15.5H5.6V117.8z M1.8,94v65.4h14V94H1.8z M367.5,159.4h6.3v-28.5h-6.3V159.4z M367.3,117.8h6.8v-15.5h-6.8V117.8z   M363.5,94v65.4h14V94H363.5z M15.8,91.3H1.6V94h14.2V91.3L15.8,91.3z M363.5,94.1h14.1v-2.7h-14.1V94.1z M195.2,93.9v3.6l-1.7-0.2  c-2.1-0.7-5.1-0.7-7.4-0.1l-1.7,0.2v-3.5c0-0.2,0-0.5,0-0.7c0.1-0.7,0.3-1.4,0.7-2c0.1-0.2,0.3-0.5,0.5-0.7c1-1.2,2.5-2,4.2-2  s3.2,0.8,4.2,2c0.2,0.2,0.3,0.4,0.5,0.7c0.4,0.6,0.6,1.3,0.7,2C195.2,93.5,195.2,93.7,195.2,93.9z M112,61v33l72.1,0.1  c0.8-1.6,0.9-5.6,5.6-5.7c5-0.1,5.3,4.3,5.6,5.6h72V61H112z M195.2,93.9v3.9c5.3,1,8.5,3.6,11.8,7.7c0.7,0.9,1.3,1.8,1.9,2.8  c1.4,2.5,2.4,5.3,2.8,8.3c0.1,0.9,0.2,1.8,0.2,2.8v7.6h165.7V94L195.2,93.9z M184.3,93.9L1.6,94v33h165.9l-0.1-7.7  c0-0.9,0.1-1.9,0.2-2.8c0.4-3,1.3-5.8,2.8-8.3c0.6-1,1.2-1.9,1.9-2.8c3.2-4,6.9-6.4,12-8L184.3,93.9z M189.4,43.4h5.2  c0,0,0-0.5-0.2-1.4s-0.4-2.1-1.3-3c-0.7-0.7-1.6-0.9-2.3-1.4s-1.2-3-1.2-3h-0.2c0,0-0.5,2.5-1.2,3s-1.6,0.7-2.3,1.4  c-0.9,0.9-1.1,2.1-1.3,3s-0.2,1.4-0.2,1.4h5.2"/>
<path class="st2" d="M15.7,93.5H112 M267.2,94h96.3 M112,61L8.5,90.9L1.9,91l-0.1,68.4h375.6l0.1-68.4l-7.2-0.1L267.2,61.1   M264.5,31.4h-8.6v7.1h8.6V31.4z M112.1,159.7h14v-111h-14V159.7z M119.1,17.9L114.7,32v6.6l-2.6,10 M126.1,48.5l-2.6-10v-6.6  l-4.4-14.2 M123.4,31.6h-8.6v7.1h8.6V31.6z M126.1,56.3l32.1-7.5 M221.6,48.8l32.1,7.5 M211.7,119.5v40h-44.3v-40  c0-1,0.1-1.9,0.2-2.8c0.4-3,1.3-5.9,2.8-8.4c0.6-1,1.2-1.9,1.9-2.8c4.1-5.1,10.3-8.4,17.3-8.4s13.2,3.3,17.3,8.4  c0.7,0.9,1.3,1.8,1.9,2.8c1.4,2.5,2.4,5.4,2.8,8.4C211.7,117.6,211.7,118.5,211.7,119.5z M203.8,119.9v39.6h-28.4v-39.6  c0-0.6,0-1.2,0.1-1.8c0.2-1.9,0.9-3.7,1.8-5.3c0.4-0.6,0.8-1.2,1.2-1.8c2.6-3.2,6.6-5.3,11.1-5.3s8.5,2.1,11.1,5.3  c0.4,0.6,0.9,1.2,1.2,1.8c0.9,1.6,1.5,3.4,1.8,5.3C203.7,118.7,203.8,119.3,203.8,119.9z M222.1,49L195.3,3.5h-8.5h5.6h-8.5  L157.1,49 M253.2,159.5h14v-111h-14L253.2,159.5L253.2,159.5z M260.2,17.7l-4.4,14.2v6.6l-2.6,10 M267.2,48.4l-2.6-10v-6.6  l-4.4-14.2"/>
</svg>