<svg xmlns="http://www.w3.org/2000/svg" xmlns:xlink="http://www.w3.org/1999/xlink" version="1.1" id="Layer_1" x="0px" y="0px" viewBox="0 0 124 155" style="enable-background:new 0 0 124 155;" xml:space="preserve">
<style type="text/css">
	.st0{fill:#35b5e5;}
	.st1{fill:none;stroke:#ffffff;stroke-miterlimit:10;}
	.st2{fill:none;stroke:#ffffff;stroke-width:2;stroke-miterlimit:10;}
</style>
<polyline class="st0" points="119.3,154 4.7,154 4.7,133.9 3.1,129.3 4.7,127.7 4.7,42.7 3.1,38 19.5,14.1 35.6,14.2 35.6,1.4   88.2,1.4 88.2,14.2 104.3,14.1 104.3,14.1 104.3,14.1 121.8,37 119.1,42.7 119.1,127.7 120.5,129.2 118.9,133.8 119.3,154 "/>
<path class="st1" d="M119.2,127.7h1.4v1.5l-1.3,4.6V154H4.7v-20.1l-1.5-4.6v-1.5h1.6 M35.6,14.2h52.6V1.4H35.6V14.2z M120.9,38.2  h1.5l-17.9-24H19.8l-17.9,24h1.5h58.8H120.9z M15.9,127.8H4.8V42.7h114.4v85.1h-12c-2.3-2.8-5.7-4.6-9.7-4.6s-7.4,1.8-9.7,4.6H71.7  c-2.3-2.8-5.7-4.6-9.7-4.6s-7.4,1.8-9.7,4.6H36.1c-2.3-2.8-5.7-4.6-9.7-4.6S18.2,124.9,15.9,127.8z M3.1,129.3L3.1,129.3L3.1,129.3z   M120.7,38H61.9H3.1l1.5,4.6H119L120.7,38z M61.9,38H3.1H1.6l17.9-24h84.8l17.9,24h-1.5H61.9z M109.9,135.5V154H85.1v-18.6  c0-0.5,0-1,0.1-1.5c0.2-1.7,0.8-3.2,1.6-4.6c0.3-0.5,0.7-1.1,1.1-1.5c2.3-2.8,5.7-4.6,9.7-4.6s7.4,1.8,9.7,4.6  c0.4,0.5,0.7,1,1.1,1.5c0.8,1.4,1.4,3,1.6,4.6C109.8,134.4,109.9,134.9,109.9,135.5z M74.3,135.5V154H49.6v-18.6c0-0.5,0-1,0.1-1.5  c0.2-1.7,0.8-3.2,1.6-4.6c0.3-0.5,0.7-1.1,1.1-1.5c2.3-2.8,5.7-4.6,9.7-4.6s7.4,1.8,9.7,4.6c0.4,0.5,0.7,1,1.1,1.5  c0.8,1.4,1.4,3,1.6,4.6C74.3,134.4,74.3,134.9,74.3,135.5z M38.5,135v18.6H13.8V135c0-0.5,0-1,0.1-1.5c0.2-1.7,0.8-3.2,1.6-4.6  c0.3-0.5,0.7-1.1,1.1-1.5c2.3-2.8,5.7-4.6,9.7-4.6s7.4,1.8,9.7,4.6c0.4,0.5,0.7,1,1.1,1.5c0.8,1.4,1.4,3,1.6,4.6  C38.5,134,38.5,134.5,38.5,135z"/>
<path class="st2" d="M26.3,123.1c3.9,0,7.4,1.8,9.7,4.6h16.3c2.3-2.8,5.7-4.6,9.7-4.6s7.4,1.8,9.7,4.6H88c2.3-2.8,5.7-4.6,9.7-4.6  s7.4,1.8,9.7,4.6h12v-85H4.7v85.1h11.2C18.2,124.9,22.4,123.1,26.3,123.1z M99,62.8v-6.2V55v-3v-1.5h1.5h7.7h1.5V52v3v1.5v6.2v1.5  h-1.5h-7.7H99V62.8z M99,87.5v-6.2v-1.5v-3.1v-1.5h1.5h7.7h1.5v1.5v3.1v1.5v6.2V89h-1.5h-7.7H99V87.5z M99,112.3v-6.2v-1.5v-3.1V100  h1.5h7.7h1.5v1.5v3.1v1.5v6.2v1.5h-1.5h-7.7H99V112.3z M85.1,62.8v-6.2V55v-3v-1.5h1.5h7.7h1.5V52v3v1.5v6.2v1.5h-1.5h-7.7h-1.5  V62.8z M85.1,87.5v-6.2v-1.5v-3.1v-1.5h1.5h7.7h1.5v1.5v3.1v1.5v6.2V89h-1.5h-7.7h-1.5V87.5z M85.1,112.3v-6.2v-1.5v-3.1V100h1.5  h7.7h1.5v1.5v3.1v1.5v6.2v1.5h-1.5h-7.7h-1.5V112.3z M63.5,62.8v-6.2V55v-3v-1.5H65h7.7h1.5V52v3v1.5v6.2v1.5h-1.5H65h-1.5V62.8  L63.5,62.8z M63.5,87.5v-6.2v-1.5v-3.1v-1.5H65h7.7h1.5v1.5v3.1v1.5v6.2V89h-1.5H65h-1.5V87.5L63.5,87.5z M63.5,112.3v-6.2v-1.5  v-3.1V100H65h7.7h1.5v1.5v3.1v1.5v6.2v1.5h-1.5H65h-1.5V112.3L63.5,112.3z M49.5,62.8v-6.2V55v-3v-1.5H51h7.7h1.5V52v3v1.5v6.2v1.5  h-1.5H51h-1.5V62.8z M49.5,87.5v-6.2v-1.5v-3.1v-1.5H51h7.7h1.5v1.5v3.1v1.5v6.2V89h-1.5H51h-1.5V87.5z M49.5,112.3v-6.2v-1.5v-3.1  V100H51h7.7h1.5v1.5v3.1v1.5v6.2v1.5h-1.5H51h-1.5V112.3z M27.9,62.8v-6.2V55v-3v-1.5h1.5h7.7h1.5V52v3v1.5v6.2v1.5h-1.5h-7.7h-1.5  C27.9,64.2,27.9,62.8,27.9,62.8z M27.9,87.5v-6.2v-1.5v-3.1v-1.5h1.5h7.7h1.5v1.5v3.1v1.5v6.2V89h-1.5h-7.7h-1.5  C27.9,89,27.9,87.5,27.9,87.5z M27.9,112.3v-6.2v-1.5v-3.1V100h1.5h7.7h1.5v1.5v3.1v1.5v6.2v1.5h-1.5h-7.7h-1.5  C27.9,113.8,27.9,112.3,27.9,112.3z M14,62.8v-6.2V55v-3v-1.5h1.5h7.7h1.5V52v3v1.5v6.2v1.5h-1.5h-7.7H14C14,64.3,14,62.8,14,62.8z   M14,87.5v-6.2v-1.5v-3.1v-1.5h1.5h7.7h1.5v1.5v3.1v1.5v6.2V89h-1.5h-7.7H14C14,89.1,14,87.5,14,87.5z M14,112.3v-6.2v-1.5v-3.1V100  h1.5h7.7h1.5v1.5v3.1v1.5v6.2v1.5h-1.5h-7.7H14V112.3z M43.3,5.4l1.1,2.3L47,8.1l-1.8,1.8l0.4,2.5l-2.3-1.2L41,12.4l0.4-2.5  l-1.8-1.8l2.5-0.4L43.3,5.4z M52.7,5.4l1.1,2.3l2.5,0.4l-1.8,1.8l0.4,2.5l-2.3-1.2l-2.3,1.2l0.4-2.5L49,8.1l2.5-0.4L52.7,5.4z   M61.8,5.4l1.1,2.3l2.5,0.4l-1.8,1.8l0.4,2.5l-2.3-1.2l-2.3,1.2L60,9.9l-1.8-1.8l2.5-0.4L61.8,5.4z M71.2,5.4l1.1,2.3l2.5,0.4  L73,9.9l0.4,2.5l-2.3-1.2l-2.3,1.2l0.4-2.5l-1.8-1.8L70,7.7L71.2,5.4z M80.5,5.5l1.1,2.3l2.5,0.4L82.3,10l0.4,2.5l-2.3-1.2l-2.3,1.2  l0.4-2.5l-1.8-1.8l2.5-0.4L80.5,5.5z M82.1,26.7H88 M64.7,26.5h-5.9 M41.5,26.6h-5.9 M41.8,31.9v-1.5v-3.1v-1.5v-3.1v-1.5h-1.5h-3.1  h-1.5v1.5v3.1v1.5v3.1v1.5h1.5h3.1H41.8L41.8,31.9z M82,30.3v-3.1v-1.5v-3.1V21h1.5h3.1h1.5v1.5v3.1v1.5v3.1v1.5h-1.5h-3.1H82V30.3z   M58.8,31.9v-1.5v-3.1v-1.5v-3.1V21h1.5h3.1H65v1.5v3.1v1.5v3.1v1.5h-1.5h-3.1h-1.6V31.9z M14.1,133.9H4.7l-1.5-4.6l0,0h12.5  C14.8,130.7,14.3,132.2,14.1,133.9z M37.1,129.3h14.1c-0.8,1.4-1.4,3-1.6,4.6h-11C38.4,132.2,37.9,130.7,37.1,129.3z M72.6,129.3  h14.1c-0.8,1.4-1.4,3-1.6,4.6h-11C74,132.2,73.4,130.7,72.6,129.3z M118.9,133.8h-9.4l-1.5-4.6l0,0h12.5  C119.7,130.6,119.2,132.2,118.9,133.8z"/>
</svg>