<?xml version="1.0" encoding="utf-8"?>
<!-- Generator: Adobe Illustrator 20.1.0, SVG Export Plug-In . SVG Version: 6.00 Build 0)  -->
<svg version="1.1" id="Layer_1" xmlns="http://www.w3.org/2000/svg" xmlns:xlink="http://www.w3.org/1999/xlink" x="0px" y="0px"
	 viewBox="0 0 132 113" style="enable-background:new 0 0 132 113;" xml:space="preserve">
<style type="text/css">
	.st0{fill:#FFFFFF;}
	.st1{fill:none;stroke:#000000;stroke-miterlimit:10;}
	.st2{fill:none;stroke:#000000;stroke-width:2;stroke-miterlimit:10;}
</style>
<g id="Слой_5">
	<polyline class="st0" points="63.2,4.2 61.4,25.1 58.8,25 49.6,38.6 49.5,51.5 47.8,51.2 47.8,52.3 49.5,52.5 49.7,60.9 40.1,60.9 
		23.8,68.4 20,57.3 17.1,68.9 15.1,70.1 16.3,71.9 6,77.2 9.5,78 9.6,111.1 121.6,111.2 121.6,77.4 128.2,77.3 128.2,77.3 
		128.2,77.3 128.2,77.3 98.7,43.5 83.2,61.5 75.7,61.7 75.7,52.5 77.4,52.3 77.4,51.2 75.5,51.2 75.6,38.8 67.4,25.1 65,25.1 
		63.2,4.2 	"/>
</g>
<g id="Слой_1">
	<path class="st1" d="M58.5,56.7h8.7v14.6h-8.7C58.5,71.3,58.5,56.7,58.5,56.7z M65.4,58H60v9.5h5.4V58z M65.4,46.3h3.7v-5.9h-3.7
		V46.3z M65.4,46.3l0-5.7c0,0-0.7-1.9-2.5-1.9c-1.8,0-2.4,1.8-2.4,1.8v5.9L65.4,46.3z M62.7,86.7c2.4,0,4.4-1.8,4.4-4
		c0-2.2-1.9-4-4.4-4s-4.4,1.8-4.4,4C58.3,84.9,60.3,86.7,62.7,86.7z M99.8,64.5h2.1V56h-2.1V64.5z M97.1,64.5h2.7V55h-2.7V64.5z
		 M56.8,46.4h3.7v-5.9h-3.7V46.4z M95,64.5h2.1V56H95V64.5z M76.8,104.1c0,0,3-0.4,4.1-2.1c1.1-1.6,0.8-2.1,0.9-3.1
		c0.1-0.9-0.1-1.5-0.1-1.5s-1.5-4.7,0.3-8.4s5.7-7.9,9.7-9.9c4-2,9.4-2.6,14.3,0.1s8.9,6.3,9.5,10.1s0.9,4.3,0.5,5.9
		c-0.4,1.6-0.4,2.3-0.4,2.3s-0.2,2.1,0.6,3.3c0.8,1.3,1,2,2.8,2.8c1.2,0.5,1.5,0.2,1.5,0.2s-0.6-6.1-0.8-10.4
		c-0.2-4.3-1-15.8-1-15.8s-0.3-3.9-3.9-6.8s-6.3-6.3-16.3-6.3s-13.6,4.5-15.7,6s-4.3,4.2-4.5,8.3C78.3,83,76.8,104.1,76.8,104.1z
		 M112.5,83.8V69.4 M107.5,66.3v14.1 M102.9,77.9V65 M99.8,64.5v12.7 M84.4,85V69.4 M89.3,66.4v14.1 M93.9,78V65.1 M97,77.3V64.6
		 M94.5,104.1V80.4 M102.5,104.1V80 M89.3,85.3h19.4 M58.3,83h8.5 M61.4,78.9v7.7 M64.1,78.9v7.3 M54.3,77.3h-2.1v33.9h2.1V77.3z
		 M73.2,77.3H71v33.9h2.1C73.2,111.2,73.2,77.3,73.2,77.3z M28.4,103.2V85.8 M35.8,85.6v17.7 M28.6,89.5h6.9 M23.1,91.8h5
		 M35.8,91.8h5 M23,111.1h18.3v-7.7H23V111.1z M11.9,77.2H9.6v33.9h2.2V77.2z M17.1,84.3c0,0-1.8,0.8-1.9,4.4
		c-0.1,3.6-0.1,3.6-0.1,3.6s-0.9-0.6-0.9,1.5s0.2,5.7,0.2,5.7s-1.5-0.9-1.4,1.5c0.1,2.4,0.5,1.8,0,3.5c-0.5,1.7-1.1,2.4-1.1,2.4
		 M22.9,106.7c0,0-0.6-0.7-1.1-2.4s-0.1-1.1,0-3.4s-1.4-1.5-1.4-1.5s0.2-3.5,0.2-5.7s-0.8-1.5-0.8-1.5s0,0-0.1-3.5
		c-0.1-2.7-1.1-3.8-1.6-4.2c-0.2-0.1-1-0.1-1-0.1 M46.5,84.2c0,0-1.8,0.8-1.9,4.3C44.5,92,44.5,92,44.5,92s-0.8-0.6-0.8,1.5
		c0,2.1,0.2,5.7,0.2,5.7s-1.5-0.9-1.4,1.5s0.5,1.8,0,3.4s-1.1,2.4-1.1,2.4 M52.2,106.5c0,0-0.6-0.7-1.1-2.4c-0.5-1.7-0.1-1.1,0-3.4
		s-1.4-1.5-1.4-1.5s0.2-3.5,0.2-5.7S49,92,49,92s0,0-0.1-3.5c-0.1-2.7-1.1-3.8-1.6-4.2c-0.2-0.1-1-0.1-1-0.1"/>
</g>
<g id="Слой_2">
	<path class="st2" d="M75.5,111.1H9.6V77.3h58.8h7V111.1z M98.9,104.9c6.3,0,11.4-5.7,11.4-12.8s-5.1-12.8-11.4-12.8
		S87.5,85,87.5,92.1S92.6,104.9,98.9,104.9z M65,25.1L63.2,1.3l-1.8,23.8H65z M55.6,111.1h14.2V88.8H55.6V111.1z M47.8,52.3h29.7
		v-1.2H47.8V52.3z M41.3,103.4l0-10c0,0-1.1-8.3-8.6-8.5c-7.9-0.3-9.6,8.4-9.6,8.4l0,10.2L41.3,103.4z M99.4,42.3l-30.9,35l7.1,0
		l-0.1,33.9l23.9,0.1 M97.3,111.2h24.3V77.4l7.1,0l-30.6-35 M23.8,68.4l-3.4-12.9l-3.4,13.4l-2,1.2l1.2,1.8 M49.7,60.9h-9.6
		L4.7,77.3h63.7 M75.6,69.1V38.8l-8.2-13.7l-8.6,0l-9.2,13.6l0.5,36l8.4-3l14.9,0L75.6,69.1z M75.5,60.9h7.1"/>
</g>
</svg>
