<?xml version="1.0" encoding="utf-8"?>
<!-- Generator: Adobe Illustrator 20.1.0, SVG Export Plug-In . SVG Version: 6.00 Build 0)  -->
<svg version="1.1" id="Layer_1" xmlns="http://www.w3.org/2000/svg" xmlns:xlink="http://www.w3.org/1999/xlink" x="0px" y="0px"
	 viewBox="0 0 117 141" style="enable-background:new 0 0 117 141;" xml:space="preserve">
<style type="text/css">
	.st0{fill:#FFFFFF;}
	.st1{fill:none;stroke:#000000;stroke-width:2;stroke-miterlimit:10;}
	.st2{fill:none;stroke:#000000;stroke-miterlimit:10;}
</style>
<polyline class="st0" points="114.6,139 114.6,125.2 98,125.2 98,103.2 98,103.2 98,103.2 97.7,104 76.3,103.2 71.1,16.4 58.1,3 
	46,16.5 40.8,103.2 19.2,103.2 18.6,125.1 2.6,125.2 2.6,139 114.6,139 "/>
<path id="_x3C_Path_x3E_" class="st1" d="M66.5,139H2.6v-13.8h16.6v-22h21.6l5-87.3L59.2,1.7 M50.7,139h63.9v-13.8H98v-22H76.3
	l-4.9-87.3L58.5,2.3 M17.4,125.2h81.9 M76.3,103.2H39.6"/>
<rect x="46.9" y="107.5" class="st2" width="25.3" height="13.3"/>
</svg>
