<?xml version="1.0" encoding="utf-8"?>
<!-- Generator: Adobe Illustrator 20.1.0, SVG Export Plug-In . SVG Version: 6.00 Build 0)  -->
<svg version="1.1" id="Layer_1" xmlns="http://www.w3.org/2000/svg" xmlns:xlink="http://www.w3.org/1999/xlink" x="0px" y="0px"
	 viewBox="0 0 110 108" style="enable-background:new 0 0 110 108;" xml:space="preserve">
<style type="text/css">
	.st0{fill:#FFFFFF;}
	.st1{fill:none;stroke:#000000;stroke-miterlimit:10;}
	.st2{fill:none;stroke:#000000;stroke-width:2;stroke-miterlimit:10;}
</style>
<path class="st0" d="M73.5,12.8l-10,0.5l-0.1-5.9c0,0-5.1-3.7-9.4-4.4S40.6,4,37.7,5.8S34.8,13,34.8,13l-10.5,0.6
	c0,0,0.2,12.4-1.9,17.3s-5.1,11.4-5.1,11.4L13,42.7l0,65.3l72.5-1.1V42.8l-5.8-1c0,0-4-8.9-4.9-11.7"/>
<path class="st1" d="M58.7,39H39.9V16.5h18.8V39z M56.9,18.9H42v17.9h14.9V18.9z M42,23.6h14.9 M41.9,31.4h14.7 M46.6,36.9V19
	 M52.3,36.8V19.1 M74.8,45.7H60.1v22.5h14.7C74.8,68.2,74.8,45.7,74.8,45.7z M73.4,48.2H61.7v17.9h11.7V48.2z M73.4,52.8H61.8
	 M61.6,60.7h11.5 M67.4,66.2V48.3 M75,78H60.2v29.5H75V78L75,78z M73.6,88.7H61.8v18.6h11.8V88.7L73.6,88.7z M73.6,80.3H61.8v7.1
	h11.8V80.3L73.6,80.3z M68,88.7h-6.2v18.6H68V88.7z M0.5,107.5h94.9 M49.2,12.7c1.8,0,3.3-1.6,3.3-3.5S51,5.6,49.2,5.6
	s-3.3,1.6-3.3,3.5S47.4,12.7,49.2,12.7z M38.3,45.7H23.6v22.5h14.7V45.7z M36.9,48.2H25.2v17.9h11.6L36.9,48.2L36.9,48.2z
	 M36.9,52.8H25.3 M25.2,60.7h11.5 M30.9,48.3v17.9 M105.3,70.4c0,0,2.4-1.3,0.4-3.1s-7.3-3.9-11.7-2c-4.4,1.9-6.2,4.5-6.9,7.5
	c-0.7,3-1.2,7.9-0.6,11.8s0.8,8.9,2.8,9.2c2,0.4,3.2-0.8,2.5-1.7c-0.7-0.8-1.2-1.4-1.7-0.8 M86.9,88.3h7.2 M86.5,77.5h6.8
	 M55.6,78.1H23.5v22.5h32.1C55.6,100.7,55.6,78.1,55.6,78.1z M39.6,98.8v-18 M54.2,80.6H24.6v17.9h29.6V80.6L54.2,80.6z M25.1,85.3
	h29.2 M54.5,93.1H25 M30.8,80.7v17.9 M48.2,98.3V81 M23.2,75.8H75v-5.2H23.2V75.8z"/>
<path d="M92.1,73.2c-2-0.1-1.8,0.3-1.8,0.4s2.6,5.5,2.6,5.5s1.6,3.5,0.9,5.1s-0.9,2.6-1,4.1c-0.1,1.6,0.5,2.2,0.5,2.2l3.6,0.1
	c0,0,0.2-0.3,0.5-1.4c0.1-0.5,1.1-0.2,2.5,0.9s4.8,0.9,6.4,0.4s3.9-0.9,2.3-2.3s-1.3-1.2-3.1-1.2s-2.6-0.1-4.1-1.8s-1.5-2.7-1.7-6.3
	c-0.2-3.6-0.2-6.6-0.2-6.6"/>
<path class="st2" d="M16.7,42.8c0,0,3.7-5.7,5.7-11.9c1.9-5.8,1.7-17.8,1.7-17.8h10.2 M85.5,42.8c0,0-22.7-0.5-22.2-33.9
	c0-0.5,0.4-1.2,0-1.5C60.6,5,56.5,2.5,49.6,2.3S38.9,4.9,34.8,7.4c-0.4,0.2,0,0.9,0,1.4c-0.2,35.5-21.7,34-21.7,34v64.1h72.4V42.8
	L85.5,42.8z M80.7,42.1c0,0-3.5-5.4-5.5-11.5c-1.9-5.8-1.7-17.8-1.7-17.8H63.3"/>
</svg>
