<?xml version="1.0" encoding="utf-8"?>
<!-- Generator: Adobe Illustrator 17.0.0, SVG Export Plug-In . SVG Version: 6.00 Build 0)  -->
<!DOCTYPE svg PUBLIC "-//W3C//DTD SVG 1.1//EN" "http://www.w3.org/Graphics/SVG/1.1/DTD/svg11.dtd" [
	<!ENTITY ns_flows "http://ns.adobe.com/Flows/1.0/">
	<!ENTITY ns_extend "http://ns.adobe.com/Extensibility/1.0/">
	<!ENTITY ns_ai "http://ns.adobe.com/AdobeIllustrator/10.0/">
	<!ENTITY ns_graphs "http://ns.adobe.com/Graphs/1.0/">
]>
<svg version="1.1" id="Слой_1" xmlns:x="&ns_extend;" xmlns:i="&ns_ai;" xmlns:graph="&ns_graphs;"
	 xmlns="http://www.w3.org/2000/svg" xmlns:xlink="http://www.w3.org/1999/xlink" xmlns:a="http://ns.adobe.com/AdobeSVGViewerExtensions/3.0/"
	 x="0px" y="0px" width="134px" height="136px" viewBox="0 0 134 136" style="enable-background:new 0 0 134 136;"
	 xml:space="preserve">
<path style="fill:#FFFFFF;" d="M62.875,11.625c0.125,2.5,0.131,5.331,0.131,5.331H73.58c0,0,0.545,3.544,2.17,9.294s3.5,9,3.5,9
	s2.625-0.375,4.375,1.625s-1.25,4.625-1.25,4.625l2.25,1.375L85,136H12.5l0.055-93.544l2.82-0.081c0,0-0.75-0.75-1.625-2.375
	s-0.625-2.25,0.25-4s3.256-1.245,3.256-1.245l6.119-17.38l10.259-0.419l0.6-8.5c0,0-1.359,0.294-3.109,0.294s-1.5-0.75-1.844-1.745
	c-0.344-0.995,1.094-1.63,3.094-1.63S34,7.625,34,7.625s1-1.125,3.875-2.75S45.125,2,51.5,2.25S63,6.5,63,6.5s1.25-1,3.625-0.875
	s1.25,2.375,0.5,3s-3.875-0.75-3.875-0.75S62.75,9.125,62.875,11.625z M114.063,114.302c0,0,0.812-9.427-7.563-9.427
	s-10.375,4.875-10.375,4.875s-0.375,3-0.125,4.125s0.503,1.807,1.564,1.466c1.061-0.341,2.311-0.091,2.311-0.091l2-0.125
	l1.634,0.232l1.616-0.482l1.417,0.466l1.333-0.466l1.665,0.482L111,115l1.572,0.341L114.063,114.302 M104.25,134.386h1.315V111.5
	h-1.315V134.386z M101.875,135.452h6.638v-1.327h-6.638V135.452z M94.178,135.452h5.331v-1.895h-5.331V135.452z M96.296,133.557
	h1.213v-8.648h-1.213V133.557z M88.375,124.5h16.5v-1.25h-16.5V124.5z M120.875,123.625l-1.226-0.76c0,0-0.649,0.51-1.274,2.635
	s-0.726,3.807-0.726,3.807l-6.353-0.311l-0.089,6.975l0.977-4.931l4.976,0.089c0,0,0.339,1.247,0.714,2.497s1.418,2.123,1.418,2.123
	s-0.543-2.998-0.543-4.998s0.375-3.625,0.625-4.75S120.875,123.625,120.875,123.625z"/>
<path style="fill:none;stroke:#000000;stroke-miterlimit:10;" d="M48.117,4.426c7.375-0.215,11.706,4.859,11.706,4.859H37.67
	C37.67,9.285,40.742,4.642,48.117,4.426z M55.914,21.606H41.461v16.704h14.453V21.606z M53.757,23.939H43.38v12.261h10.378V23.939z
	 M48.64,24.082V36.45 M53.793,28.56h-10.2 M41.496,44.926H22.731v22.532h18.765V44.926z M39.684,47.378H24.792v17.877h14.891V47.378
	z M24.828,52.034l14.856-0.036 M24.721,59.853H39.47 M29.377,65.397V47.449 M35.099,65.29V47.52 M74.975,44.926H56.21v22.532h18.765
	V44.926z M73.162,47.378H58.271v17.877h14.891V47.378z M58.307,52.034l14.856-0.036 M58.2,59.853h14.749 M62.856,47.449v17.948
	 M68.578,47.52v17.77 M41.585,74.193H22.82v22.532h18.765V74.193z M39.772,76.645H24.881v17.877h14.891V76.645z M39.772,81.265
	l-14.856,0.036 M24.81,89.12h14.749 M29.466,94.664V76.716 M35.188,94.557v-17.77 M75.064,74.193H56.299v22.532h18.765V74.193z
	 M73.251,76.645H58.36v17.877h14.891V76.645z M58.395,81.301l14.856-0.036 M58.289,89.12h14.749 M62.944,76.716v17.948
	 M68.666,76.787v17.77 M41.763,105.93H22.998v22.532h18.765V105.93z M39.95,108.382H25.059v17.877H39.95V108.382z M39.95,113.003
	l-14.856,0.036 M39.737,120.857H24.988 M29.644,126.401v-17.948 M35.365,126.295v-17.77 M82.628,99.527h-5.183v3.039
	c0,1.053,1.16,1.906,2.591,1.906l0,0c1.431,0,2.591-0.854,2.591-1.906V99.527z M75.458,105.93H56.337v29.463h19.121V105.93z
	 M73.611,116.689H58.438v18.577h15.173V116.689z M73.611,108.256H58.438v7.101h15.173V108.256z M66.414,116.689h-7.976v18.577h7.976
	V116.689z M14.272,99.497h68.592 M77.356,99.557h-5.183v3.039c0,1.053,1.16,1.906,2.591,1.906l0,0c1.431,0,2.591-0.854,2.591-1.906
	V99.557z M72.143,99.527h-5.183v3.039c0,1.053,1.16,1.906,2.591,1.906l0,0c1.431,0,2.591-0.854,2.591-1.906V99.527z M66.872,99.557
	h-5.183v3.039c0,1.053,1.16,1.906,2.591,1.906l0,0c1.431,0,2.591-0.854,2.591-1.906V99.557z M61.748,99.557h-5.183v3.039
	c0,1.053,1.16,1.906,2.591,1.906l0,0c1.431,0,2.591-0.854,2.591-1.906V99.557z M56.535,99.527h-5.183v3.039
	c0,1.053,1.16,1.906,2.591,1.906l0,0c1.431,0,2.591-0.854,2.591-1.906V99.527z M51.16,99.557h-5.183v3.039
	c0,1.053,1.16,1.906,2.591,1.906l0,0c1.431,0,2.591-0.854,2.591-1.906V99.557z M45.888,99.586h-5.183v3.039
	c0,1.053,1.16,1.906,2.591,1.906l0,0c1.431,0,2.591-0.854,2.591-1.906V99.586z M40.676,99.557h-5.183v3.039
	c0,1.053,1.16,1.906,2.591,1.906l0,0c1.431,0,2.591-0.854,2.591-1.906V99.557z M35.404,99.586h-5.183v3.039
	c0,1.053,1.16,1.906,2.591,1.906l0,0c1.431,0,2.591-0.854,2.591-1.906V99.586z M30.28,99.586h-5.183v3.039
	c0,1.053,1.16,1.906,2.591,1.906l0,0c1.431,0,2.591-0.854,2.591-1.906V99.586z M25.068,99.557h-5.183v3.039
	c0,1.053,1.16,1.906,2.591,1.906l0,0c1.431,0,2.591-0.854,2.591-1.906V99.557z M19.796,99.586h-5.183v3.039
	c0,1.053,1.16,1.906,2.591,1.906l0,0c1.431,0,2.591-0.854,2.591-1.906V99.586z M114.051,112.517c0-4.351-4.031-7.878-9.003-7.878
	c-4.972,0-9.003,3.527-9.003,7.878C96.044,112.517,114.036,112.569,114.051,112.517z M114.063,112.646h-2.981v1.656
	c0,0.574,0.667,1.039,1.491,1.039l0,0c0.823,0,1.491-0.465,1.491-1.039V112.646z M111.03,112.662h-2.981v1.656
	c0,0.574,0.667,1.039,1.491,1.039l0,0c0.823,0,1.491-0.465,1.491-1.039V112.662z M108.032,112.646h-2.981v1.656
	c0,0.574,0.667,1.039,1.491,1.039l0,0c0.823,0,1.491-0.465,1.491-1.039V112.646z M105,112.662h-2.981v1.656
	c0,0.574,0.667,1.039,1.491,1.039l0,0c0.823,0,1.491-0.465,1.491-1.039V112.662z M102.053,112.662h-2.981v1.656
	c0,0.574,0.667,1.039,1.491,1.039l0,0c0.823,0,1.491-0.465,1.491-1.039V112.662z M99.055,112.646h-2.981v1.656
	c0,0.574,0.667,1.039,1.491,1.039l0,0c0.823,0,1.491-0.465,1.491-1.039V112.646z M111.149,112.721c0,0-0.272-3.317-1.985-5.346
	c-1.599-1.895-3.998-2.677-3.998-2.677 M108.328,112.705c0,0-0.454-3.418-1.415-5.27c-0.829-1.599-1.57-2.736-1.57-2.736
	 M105.051,112.646v-7.877 M105.107,104.758c0,0-2.399,0.782-3.998,2.677c-1.712,2.029-1.985,5.346-1.985,5.346 M104.929,104.758
	c0,0-0.74,1.137-1.57,2.736c-0.961,1.852-1.415,5.27-1.415,5.27 M105.565,115.313h-1.213v19.073h1.213V115.313z M108.513,134.386
	h-6.99v1.066h6.99V134.386z M105.314,123.132H88.729v1.54h16.585V123.132z M97.51,124.909h-1.213v8.648h1.213V124.909z
	 M99.509,133.557h-5.331v1.895h5.331V133.557z M119.293,135.748c0,0-0.8-5.997-0.178-8.752c0.622-2.754,1.333-3.421,1.333-3.421
	l-0.8-0.711c0,0-0.8,0.578-1.377,3.199c-0.578,2.621-0.622,3.243-0.622,3.243l-6.353-0.311l-0.089,6.975h0.711l0.267-4.931
	l4.976,0.089l1.377,4.665L119.293,135.748z M133.746,136H0.59 M31.724,8.782c1.349,0,2.443-0.796,2.443-1.777
	s-1.094-1.777-2.443-1.777s-2.443,0.796-2.443,1.777S30.375,8.782,31.724,8.782z M45.096,18.111h7.286v-5.598h-7.286V18.111z
	 M68.197,7.005c0-0.981-1.094-1.777-2.443-1.777S63.31,6.023,63.31,7.005s1.094,1.777,2.443,1.777S68.197,7.986,68.197,7.005z"/>
<path style="fill:none;stroke:#000000;stroke-width:2;stroke-miterlimit:10;" d="M17.256,34.755c0,0,0.829-1.895,3.051-7.582
	s2.754-10.218,2.754-10.218h10.573 M79.384,34.755c0,0-0.829-1.895-3.051-7.582c-2.221-5.686-2.754-10.218-2.754-10.218H63.006
	 M84.938,42.456c0,0-22.746-0.474-22.153-33.881c0.01-0.541,0.374-1.222,0.006-1.54C60.06,4.665,55.949,2.112,49.042,1.94
	C42.11,1.768,38.38,4.547,34.277,7.031c-0.387,0.235-0.04,0.927-0.043,1.425c-0.237,35.54-21.679,34-21.679,34v92.878h72.383V42.456
	z M16.486,41.745c1.816,0,3.287-1.571,3.287-3.51c0-1.938-1.472-3.51-3.287-3.51s-3.287,1.571-3.287,3.51
	C13.199,40.174,14.671,41.745,16.486,41.745z M84.545,38.235c0-1.938-1.472-3.51-3.287-3.51c-1.816,0-3.287,1.571-3.287,3.51
	c0,1.938,1.472,3.51,3.287,3.51C83.074,41.745,84.545,40.174,84.545,38.235z"/>
</svg>
