<?xml version="1.0" encoding="utf-8"?>
<!-- Generator: Adobe Illustrator 18.0.0, SVG Export Plug-In . SVG Version: 6.00 Build 0)  -->
<!DOCTYPE svg PUBLIC "-//W3C//DTD SVG 1.1//EN" "http://www.w3.org/Graphics/SVG/1.1/DTD/svg11.dtd">
<svg version="1.1" xmlns="http://www.w3.org/2000/svg" xmlns:xlink="http://www.w3.org/1999/xlink" x="0px" y="0px"
	 viewBox="0 0 301 314" enable-background="new 0 0 301 314" xml:space="preserve">
<g id="Layer_1">
	<linearGradient id="SVGID_1_" gradientUnits="userSpaceOnUse" x1="180.6667" y1="254.8982" x2="266.9577" y2="254.8982">
		<stop  offset="5.765705e-02" style="stop-color:#000000"/>
		<stop  offset="1" style="stop-color:#000000;stop-opacity:0"/>
	</linearGradient>
	<path fill="url(#SVGID_1_)" d="M180.7,260.8c0,0,67.2,1.3,79.5-3.5c12.3-4.8,7.2-7.7-9.8-8.5C233.3,248,181,260.8,180.7,260.8z"/>
	<linearGradient id="SVGID_2_" gradientUnits="userSpaceOnUse" x1="78.2616" y1="250.794" x2="177.7476" y2="250.794">
		<stop  offset="0" style="stop-color:#000000"/>
		<stop  offset="1.013599e-02" style="stop-color:#020201;stop-opacity:0.98"/>
		<stop  offset="0.1415" style="stop-color:#111110;stop-opacity:0.7213"/>
		<stop  offset="0.2927" style="stop-color:#1A1A18;stop-opacity:0.4237"/>
		<stop  offset="0.5079" style="stop-color:#1D1D1B;stop-opacity:0"/>
		<stop  offset="0.6866" style="stop-color:#181816;stop-opacity:0.363"/>
		<stop  offset="0.8997" style="stop-color:#090909;stop-opacity:0.7962"/>
		<stop  offset="1" style="stop-color:#000000"/>
	</linearGradient>
	<path fill="url(#SVGID_2_)" d="M80.2,252.2c3.2,2.1,17.5,0.5,32.5,2.3s53.1,6.1,63.8,6.1s-53.9-19.1-64.6-19.6s-19.6,0-24.8,3.5
		S74.7,250.8,80.2,252.2z"/>
	<path fill="#353535" d="M99,241.1c-7.5,2.3-12.7,9.9-13.3,10.2c-0.6,0.2-47.8-3.9-54.8-9.1c-0.2-0.2-0.4-1.3-0.3-1.7
		c1.1-6.4,2.2-19.5,2.3-23.2c-4.1-2.1-9.1-12.2-2.5-29.2s7.6-24.4,7.7-28.3c0.1-2.5,0.7-3.4,1.2-3.8c0,0,10,8.1,25.3,14.7
		c10.7,4.6,20.4,10.6,33.1,15.4c17.8,6.7,36.5,12.4,47.4,15.4c3.9,1.1,7.1,1.8,8.5,2.1c2.8,0.7,5.2,0.4,7.6-1.5
		c2.9-2.3,5.3-6.5,7.6-10.1c3-4.8,5.6-10.2,7.2-10.9c0.4-0.2,0.8,0.9,1.1,1.3c1.8,2,16.3,13,18.5,14.8c1.7,1.4,2.9,1.8,4.4,2.1
		c0.4,0.1,2,0.7,2.3,1c4.9,4.1,10.6,11.1,40.4,13.1c31.7,2.2,28.3,18.2,28.7,22.7c5.8,3.7,1.3,5.5-0.5,6.5c-1.8,1-10,3.2-10,3.2
		c-10,3.3-47.4,13-75.8,13.2c-28.4,0.1-47.8-9.3-52.3-11.3c-8.2-3.7-26.9-12.8-31.1-14.4c-0.5-0.2-1.9-0.4-1.9-0.4s0.1,6.7,0.1,7
		S99.2,241,99,241.1z"/>
	<path fill="#FFFFFF" d="M39.4,155.9c0.3-0.2,0.6-0.9,0.7-1.2c8-45.1-0.5-74-0.5-74c-0.5-1.4-0.4-2.4,0-2.7c0.3-0.2,3.2-1,4.6-1.7
		c0.7-0.4,0.5-1.5,0.4-1.9c-0.4-2.7-2.5-9.4-2-9.8c0.5-0.5,7-1.2,8.1-0.6c1,0.6-0.1,6.3,0.5,9.3c0.1,0.3,0.6,0.7,0.8,0.7
		c47.5-12,82.1-7.8,86.9-7.1c0.4,0.1,0.6,0.5,0.5,0.7c-0.8,14.1-4.3,39.8,2.4,59.8c10,29.8,32.4,53.8,33,54c0.1,0-4.5,7.6-8.6,14.1
		c-3.2,5.1-5.6,8.5-10.5,8.5c-4.9,0-14-3.4-23.3-6.4c-11.6-3.8-23.5-7.5-28.7-9.2c-5-1.6-24.5-9.9-40.3-18
		c-11.9-6.1-21.1-9.7-23.8-13.1C39.4,156.6,39.6,156.4,39.4,155.9z"/>
	<path fill="none" stroke="#000000" stroke-width="3" stroke-miterlimit="10" d="M99,241.6c-7.5,2.3-12.7,9.9-13.3,10.2
		c-0.6,0.2-47.8-3.9-54.8-9.1c-0.2-0.2-0.4-1.3-0.3-1.7c1.1-6.4,2.2-19.5,2.3-23.2c-4.1-2.1-9.1-12.2-2.5-29.2s7.6-24.4,7.7-28.3
		c0.1-2.5,0.7-3.4,1.2-3.8c0.3-0.2,0.6-0.9,0.7-1.2c8-45.1-0.5-74-0.5-74c-0.5-1.4-0.4-2.4,0-2.7c0.3-0.2,3.2-1,4.6-1.7
		c0.7-0.4,0.5-1.5,0.4-1.9c-0.4-2.7-2.5-9.4-2-9.8c0.5-0.5,7-1.3,8.1-0.6c1,0.6-0.1,6.3,0.5,9.3c0.1,0.3,0.6,0.7,0.8,0.7
		c47.5-12,82.1-7.8,86.9-7.1c0.4,0.1,0.6,0.5,0.5,0.7c-0.8,14.1-4.3,39.8,2.4,59.8c10,29.8,32.1,52.7,32.7,52.9
		c1,0.3,0.8,0.2,2.7,2.2c1.8,2,16.3,13,18.5,14.8c1.7,1.4,2.9,1.8,4.4,2.1c0.4,0.1,2,0.7,2.3,1c4.9,4.1,10.6,11.1,40.4,13.1
		c31.7,2.2,28.3,18.2,28.7,22.7c5.8,3.7,1.3,5.5-0.5,6.5s-10,3.2-10,3.2c-10,3.3-47.4,13-75.8,13.2c-28.4,0.1-47.8-9.3-52.3-11.3
		c-8.2-3.7-26.9-12.8-31.1-14.4c-0.5-0.2-1.9-0.4-1.9-0.4s0.1,6.7,0.1,7S99.3,241.6,99,241.6z"/>
</g>
<g id="Layer_5">
	<path d="M110.8,78.8c-0.1,2.1,0.2,5.1-3.5,5.4c-3.7,0.3-6.8-2-6.8-5c0-3,1.5-5.7,4.2-6C107.4,72.9,110.9,76.6,110.8,78.8z"/>
	<path d="M113.7,100.2c0.1,3.1-2,4.8-4.4,4.8s-4.1-0.7-4.4-4.8c-0.3-4.2,2.5-4.9,4.4-4.8C111.1,95.4,113.6,97.1,113.7,100.2z"/>
	<path d="M121,119.2c0,2.1-2.3,4.3-5,4.3s-5.2-3.7-5.2-5.8c0-2.1,2.2-3.8,4.9-3.8S121,117,121,119.2z"/>
	<path d="M128.8,140.8c0.1,3.1-2.4,6-4.8,5.8c-2.4-0.2-3.9-2.8-3.8-5.2s1.5-5.5,3.8-5.5C126.4,135.9,128.6,137.6,128.8,140.8z"/>
	<path d="M139,159.3c0,2.4-2.6,4.5-4.8,4.5s-5.2-2.1-5.2-4.5s3.1-5.5,5.3-5.5S139,156.9,139,159.3z"/>
	<ellipse cx="148.5" cy="170.9" rx="4.5" ry="4.8"/>
	<path d="M167.7,181.8c0,2.5-1.7,5.2-3.8,5.2c-2.1,0-4.7-3.1-4.7-5.6c0-2.5,1.7-4.6,3.8-4.6S167.7,179.3,167.7,181.8z"/>
</g>
<g id="Layer_2">
	<path fill="none" stroke="#000000" stroke-width="2" stroke-miterlimit="10" d="M271.2,236.8c-21.2,8.9-74.5,21.5-107,16
		s-35.1-17.4-77.8-23.6S33,217.3,33,217.3"/>
	<line fill="none" stroke="#000000" stroke-width="2" stroke-miterlimit="10" x1="86.3" y1="229.4" x2="85.3" y2="251.1"/>
</g>
<g id="Layer_3">
	<path fill="none" stroke="#000000" stroke-miterlimit="10" d="M207.2,205c0,0-12.2,14.8-30,48.6"/>
	<path fill="none" stroke="#000000" stroke-miterlimit="10" d="M200.8,200.2c0,0-21.3,30.6-33.6,53.4"/>
	<g>
		<g>
			<path fill="none" stroke="#000000" stroke-linecap="round" stroke-miterlimit="10" d="M203,202.2c0,0-0.1,0.1-0.3,0.4"/>
			<path fill="none" stroke="#000000" stroke-linecap="round" stroke-miterlimit="10" stroke-dasharray="1.008,4.0318" d="
				M200.4,205.9c-5.4,7.7-18,26.6-27.3,45.9"/>
			<path fill="none" stroke="#000000" stroke-linecap="round" stroke-miterlimit="10" d="M172.2,253.5c-0.1,0.2-0.1,0.3-0.2,0.5"/>
		</g>
	</g>
	<path fill="none" stroke="#000000" stroke-width="0.5" stroke-linecap="round" stroke-miterlimit="10" d="M198.7,199.8
		c0,0-25.8,37.3-32.9,53"/>
</g>
<g id="Layer_4">
	<path fill="none" stroke="#000000" stroke-miterlimit="10" d="M98.2,66.8c0,0-5.6,1.6-6.7,6.5s0.3,20.2,2.2,25.9
		c1.8,5.7,6.2,16.8,7.5,20.8c1.3,4,2.8,9.2,4.2,12.5c1.3,3.3,8.2,18,10,21.5c1.8,3.5,3.2,6.3,4.2,8.2c1,1.8,2.7,3.8,4.3,5.2
		c1.7,1.3,5.3,5.8,11.2,9.5c5.8,3.7,17,9.5,20.5,16.3c3.5,6.8,7.8,5.8,8.3,5.3s9.8-14,10.5-17"/>
	<g>
		<g>
			<path fill="none" stroke="#000000" stroke-width="0.5" stroke-linecap="round" stroke-miterlimit="10" d="M101.2,67
				c0,0-0.2,0.1-0.5,0.2"/>
			
				<path fill="none" stroke="#000000" stroke-width="0.5" stroke-linecap="round" stroke-miterlimit="10" stroke-dasharray="0.9955,1.9911" d="
				M99,68c-2,1.1-4.8,3.1-5.5,6.1c-1.1,4.8,0.3,19.7,2.1,25.2c1.8,5.5,6,16.4,7.3,20.3c1.3,3.9,2.8,8.9,4.1,12.2
				c1.3,3.2,7.9,17.5,9.7,20.9s3.1,6.2,4.1,7.9c1,1.8,2.9,4.2,4.5,5.5c1.6,1.3,5.7,6.3,11.3,9.8c5.7,3.6,16.4,8.9,19.8,15.5
				c3.4,6.6,6.4,5.5,6.9,5c0.4-0.4,7.5-10.7,9.5-15.1"/>
			<path fill="none" stroke="#000000" stroke-width="0.5" stroke-linecap="round" stroke-miterlimit="10" d="M173.3,180.4
				c0.1-0.2,0.1-0.3,0.1-0.5"/>
		</g>
	</g>
	<path fill="none" stroke="#000000" stroke-miterlimit="10" d="M175.1,181.5c0,0-9,15.2-12,18.6c-3,3.4-5.8,5.5-17.9,1.5
		c-12.1-4-45.3-14.5-51.7-17.2c-6.3-2.7-22.7-10.9-30.5-14.5c-7.8-3.6-22.1-10.8-24-13"/>
	<g>
		<g>
			<path fill="none" stroke="#000000" stroke-width="0.5" stroke-linecap="round" stroke-linejoin="round" d="M176.3,182.9
				c0,0-0.1,0.2-0.3,0.4"/>
			
				<path fill="none" stroke="#000000" stroke-width="0.5" stroke-linecap="round" stroke-linejoin="round" stroke-dasharray="0.9976,1.9952" d="
				M175.1,185.1c-2.5,4.3-8.2,13.6-10.5,16.2c-3,3.4-6.8,6.2-18.9,2.2c-12.1-4-45.3-14.5-51.7-17.2c-6.3-2.7-22.7-10.9-30.5-14.5
				c-6.9-3.2-19.5-9.5-23.6-12.4"/>
			<path fill="none" stroke="#000000" stroke-width="0.5" stroke-linecap="round" stroke-linejoin="round" d="M39.1,158.8
				c-0.1-0.1-0.3-0.2-0.4-0.3"/>
		</g>
	</g>
	<path fill="none" stroke="#000000" stroke-miterlimit="10" d="M39.3,78.7c0,0,28.4-4.2,51.5-3.8"/>
	<g>
		<g>
			<path fill="none" stroke="#000000" stroke-width="0.5" stroke-linecap="round" stroke-miterlimit="10" d="M39.9,80.8
				c0,0,0.2,0,0.5-0.1"/>
			
				<path fill="none" stroke="#000000" stroke-width="0.5" stroke-linecap="round" stroke-miterlimit="10" stroke-dasharray="1.0137,2.0273" d="
				M42.4,80.4c7.2-1,28.8-3.7,47.5-3.4"/>
			<path fill="none" stroke="#000000" stroke-width="0.5" stroke-linecap="round" stroke-miterlimit="10" d="M90.9,77
				c0.2,0,0.3,0,0.5,0"/>
		</g>
	</g>
</g>
</svg>
